<svg width="40" height="40" viewBox="0 0 40 40" fill="none" xmlns="http://www.w3.org/2000/svg">
<path d="M37.719 24.3311C37.2205 24.3323 36.7362 24.4967 36.34 24.7992C35.9439 25.1017 35.6577 25.5256 35.5252 26.0061H33.4315L30.2565 22.3624C30.1988 22.2984 30.1284 22.2471 30.0499 22.2116C29.9714 22.1761 29.8864 22.1572 29.8002 22.1561H21.344V20.9874V17.8624H29.8002C29.8864 17.8613 29.9714 17.8424 30.0499 17.807C30.1284 17.7715 30.1988 17.7201 30.2565 17.6561L33.4315 14.0124H35.5252C35.672 14.5463 36.0074 15.0088 36.4693 15.3142C36.9311 15.6196 37.4881 15.7471 38.0368 15.6731C38.5855 15.5991 39.0888 15.3285 39.4532 14.9116C39.8176 14.4947 40.0184 13.9598 40.0184 13.4061C40.0184 12.8524 39.8176 12.3175 39.4532 11.9007C39.0888 11.4838 38.5855 11.2132 38.0368 11.1392C37.4881 11.0651 36.9311 11.1927 36.4693 11.498C36.0074 11.8034 35.672 12.266 35.5252 12.7999H33.1565C33.0703 12.801 32.9853 12.8198 32.9068 12.8553C32.8283 12.8908 32.7579 12.9422 32.7002 13.0061L29.5252 16.6499H21.344V14.3749H29.269C29.356 14.3755 29.4421 14.3567 29.521 14.32C29.5999 14.2832 29.6697 14.2294 29.7252 14.1624L31.9377 11.5624C32.0324 11.4533 32.0836 11.3131 32.0815 11.1686V8.74989C32.6102 8.60327 33.068 8.26997 33.3698 7.81175C33.6717 7.35353 33.7972 6.80143 33.7233 6.25772C33.6493 5.71402 33.3807 5.21555 32.9674 4.85465C32.5541 4.49376 32.0239 4.29489 31.4752 4.29489C30.9265 4.29489 30.3964 4.49376 29.9831 4.85465C29.5697 5.21555 29.3012 5.71402 29.2272 6.25772C29.1532 6.80143 29.2788 7.35353 29.5806 7.81175C29.8825 8.26997 30.3402 8.60327 30.869 8.74989V10.9624L28.994 13.1624H21.344V10.2624H24.1127C24.2129 10.2629 24.3118 10.2394 24.401 10.1937C24.4902 10.148 24.5671 10.0815 24.6252 9.99989L25.4002 8.74989C25.6031 8.81133 25.8133 8.84497 26.0252 8.84989C26.4774 8.85235 26.9201 8.72075 27.2975 8.47172C27.6749 8.2227 27.97 7.86741 28.1456 7.45074C28.3212 7.03408 28.3694 6.57472 28.284 6.13069C28.1987 5.68666 27.9837 5.27788 27.6662 4.95599C27.3486 4.6341 26.9428 4.41352 26.5 4.32214C26.0572 4.23075 25.5972 4.27264 25.1782 4.44253C24.7591 4.61242 24.3999 4.90268 24.1457 5.27664C23.8916 5.65061 23.7539 6.0915 23.7502 6.54364C23.7528 7.11935 23.9766 7.67205 24.3752 8.08739L23.7502 9.04989H21.344V4.44364C21.344 4.41239 21.344 4.39364 21.344 4.36864C21.3501 4.3251 21.3501 4.28093 21.344 4.23739C20.9829 3.20088 20.3068 2.3032 19.4102 1.67001C18.5137 1.03681 17.4416 0.699803 16.344 0.706143C15.3281 0.713607 14.3355 1.01188 13.4838 1.56567C12.632 2.11947 11.9567 2.90562 11.5377 3.83114C10.7494 3.58527 9.91429 3.52814 9.09981 3.66436C8.28533 3.80059 7.51428 4.12636 6.84886 4.61539C6.18343 5.10442 5.64228 5.74302 5.26905 6.47965C4.89583 7.21629 4.70098 8.03035 4.70023 8.85614C4.69723 9.34039 4.7646 9.82251 4.90023 10.2874C4.15686 10.5257 3.47539 10.9255 2.90465 11.458C2.33391 11.9906 1.88802 12.6428 1.59893 13.368C1.30983 14.0931 1.18468 14.8732 1.23245 15.6524C1.28022 16.4315 1.49972 17.1905 1.87523 17.8749C1.2096 18.3923 0.691775 19.0756 0.373718 19.8564C0.0556617 20.6371 -0.0514342 21.4878 0.0631797 22.323C0.177794 23.1583 0.510085 23.9487 1.0267 24.6149C1.54332 25.2811 2.22609 25.7997 3.00648 26.1186C2.52872 26.8747 2.25079 27.7397 2.19874 28.6325C2.14669 29.5253 2.32223 30.4167 2.7089 31.2232C3.09556 32.0296 3.68069 32.7247 4.40941 33.2431C5.13814 33.7616 5.9866 34.0865 6.87523 34.1874C6.90665 34.9936 7.14049 35.7788 7.5552 36.4708C7.96992 37.1629 8.55216 37.7394 9.24827 38.1472C9.94437 38.555 10.7319 38.781 11.5384 38.8045C12.3448 38.8279 13.1441 38.6479 13.8627 38.2811C14.7069 38.9402 15.748 39.2968 16.819 39.2936C17.7921 39.2891 18.7413 38.9915 19.5428 38.4396C20.3444 37.8878 20.9612 37.1073 21.3127 36.1999C21.3183 36.1521 21.3183 36.1039 21.3127 36.0561C21.3157 36.0312 21.3157 36.0061 21.3127 35.9811V30.9811H23.7502L24.3752 31.9436C23.9766 32.359 23.7528 32.9117 23.7502 33.4874C23.749 33.9401 23.8821 34.383 24.1327 34.76C24.3833 35.137 24.7401 35.4311 25.158 35.6052C25.5759 35.7793 26.036 35.8255 26.4802 35.7379C26.9243 35.6504 27.3325 35.433 27.653 35.1134C27.9735 34.7937 28.192 34.3861 28.2808 33.9422C28.3696 33.4983 28.3246 33.0381 28.1517 32.6197C27.9787 32.2014 27.6856 31.8437 27.3092 31.5921C26.9329 31.3405 26.4904 31.2061 26.0377 31.2061C25.8258 31.2111 25.6156 31.2447 25.4127 31.3061L24.6252 29.9999C24.5699 29.9136 24.4942 29.8423 24.4049 29.7922C24.3155 29.742 24.2152 29.7146 24.1127 29.7124H21.344V26.8749H28.9877L30.8627 29.0749V31.2499C30.3254 31.3967 29.8596 31.7335 29.5519 32.1978C29.2441 32.6621 29.1153 33.2223 29.1894 33.7744C29.2635 34.3265 29.5354 34.8329 29.9546 35.1997C30.3739 35.5664 30.912 35.7686 31.469 35.7686C32.026 35.7686 32.5641 35.5664 32.9833 35.1997C33.4026 34.8329 33.6745 34.3265 33.7486 33.7744C33.8226 33.2223 33.6938 32.6621 33.3861 32.1978C33.0783 31.7335 32.6125 31.3967 32.0752 31.2499V28.8124C32.0774 28.6679 32.0262 28.5278 31.9315 28.4186L29.719 25.8311C29.6634 25.7641 29.5937 25.7103 29.5148 25.6736C29.4359 25.6368 29.3498 25.6181 29.2627 25.6186H21.344V23.3686H29.5252L32.7002 27.0124C32.7579 27.0764 32.8283 27.1277 32.9068 27.1632C32.9853 27.1987 33.0703 27.2176 33.1565 27.2186H35.5252C35.6383 27.6287 35.8637 27.9989 36.176 28.2876C36.4883 28.5763 36.8752 28.772 37.2928 28.8524C37.7104 28.9329 38.1423 28.895 38.5395 28.7431C38.9368 28.5911 39.2836 28.3311 39.5409 27.9924C39.7982 27.6538 39.9557 27.2499 39.9956 26.8265C40.0355 26.403 39.9563 25.9768 39.7668 25.5961C39.5773 25.2153 39.2851 24.8951 38.9233 24.6715C38.5614 24.448 38.1443 24.3301 37.719 24.3311ZM37.719 12.3124C37.9316 12.3124 38.1394 12.3754 38.3162 12.4936C38.493 12.6117 38.6308 12.7796 38.7121 12.976C38.7935 13.1724 38.8148 13.3886 38.7733 13.5971C38.7318 13.8056 38.6295 13.9972 38.4791 14.1475C38.3288 14.2979 38.1372 14.4003 37.9287 14.4417C37.7202 14.4832 37.504 14.4619 37.3076 14.3806C37.1112 14.2992 36.9433 14.1614 36.8251 13.9846C36.707 13.8078 36.644 13.6 36.644 13.3874C36.644 13.1023 36.7572 12.8289 36.9588 12.6273C37.1604 12.4256 37.4339 12.3124 37.719 12.3124ZM30.4065 6.54364C30.4052 6.3305 30.4674 6.1218 30.585 5.94406C30.7027 5.76633 30.8705 5.62757 31.0672 5.54544C31.2639 5.4633 31.4805 5.44148 31.6897 5.48276C31.8988 5.52404 32.0909 5.62655 32.2416 5.77727C32.3923 5.92799 32.4948 6.12011 32.5361 6.32922C32.5774 6.53833 32.5556 6.75499 32.4734 6.95167C32.3913 7.14836 32.2525 7.31618 32.0748 7.43383C31.8971 7.55147 31.6884 7.61363 31.4752 7.61239C31.1923 7.61075 30.9214 7.49762 30.7213 7.29755C30.5212 7.09747 30.4081 6.82659 30.4065 6.54364ZM26.0315 5.46864C26.2441 5.46864 26.4519 5.53169 26.6287 5.64981C26.8055 5.76794 26.9433 5.93583 27.0246 6.13226C27.106 6.32869 27.1273 6.54483 27.0858 6.75336C27.0443 6.96189 26.942 7.15344 26.7916 7.30378C26.6413 7.45412 26.4497 7.55651 26.2412 7.59799C26.0327 7.63947 25.8165 7.61818 25.6201 7.53681C25.4237 7.45545 25.2558 7.31766 25.1376 7.14088C25.0195 6.9641 24.9565 6.75626 24.9565 6.54364C24.9565 6.40194 24.9845 6.26164 25.0389 6.13081C25.0933 5.99997 25.1731 5.88119 25.2735 5.78128C25.374 5.68138 25.4933 5.60233 25.6244 5.54867C25.7556 5.49502 25.896 5.46782 26.0377 5.46864H26.0315ZM20.1252 9.65614V12.4999C19.5903 12.2346 18.9948 12.1151 18.399 12.1535C17.8031 12.1919 17.2279 12.3868 16.7315 12.7186C16.6017 12.8118 16.5125 12.9512 16.4822 13.1082C16.452 13.2651 16.4831 13.4276 16.569 13.5624C16.662 13.6905 16.8002 13.7786 16.9557 13.8088C17.1112 13.8389 17.2723 13.8089 17.4065 13.7249C17.8179 13.446 18.3129 13.3173 18.808 13.3606C19.3032 13.4039 19.7684 13.6164 20.1252 13.9624V17.2249V19.7249C19.591 19.456 18.9945 19.3351 18.3977 19.3747C17.8009 19.4142 17.2256 19.6128 16.7315 19.9499C16.637 20.0536 16.5801 20.186 16.57 20.3259C16.56 20.4659 16.5972 20.6051 16.6759 20.7213C16.7545 20.8374 16.87 20.9238 17.0036 20.9664C17.1373 21.009 17.2814 21.0054 17.4127 20.9561C17.8214 20.675 18.3147 20.5438 18.8091 20.5848C19.3035 20.6258 19.7685 20.8365 20.1252 21.1811V22.7186V26.2499V30.3436V35.8374C19.9294 36.3216 19.6302 36.7572 19.2485 37.1138C18.8668 37.4704 18.4119 37.7393 17.9155 37.9018C17.4191 38.0643 16.8932 38.1164 16.3745 38.0546C15.8559 37.9927 15.357 37.8183 14.9127 37.5436C15.4682 37.0483 15.845 36.3839 15.9851 35.653C16.1252 34.9221 16.0207 34.1655 15.6877 33.4999C15.6687 33.4059 15.6283 33.3176 15.5697 33.2418C15.5111 33.1659 15.4358 33.1046 15.3497 33.0625C15.2636 33.0203 15.169 32.9986 15.0731 32.9989C14.9773 32.9992 14.8828 33.0216 14.7969 33.0643C14.7111 33.1069 14.6362 33.1688 14.5781 33.245C14.52 33.3212 14.4802 33.4098 14.4618 33.5039C14.4434 33.5979 14.4469 33.695 14.4719 33.7875C14.497 33.88 14.5431 33.9655 14.6065 34.0374C14.7344 34.3022 14.8086 34.5898 14.8247 34.8835C14.8408 35.1772 14.7985 35.4711 14.7003 35.7484C14.6021 36.0256 14.4499 36.2806 14.2525 36.4987C14.055 36.7167 13.8164 36.8934 13.5502 37.0186C13.5026 37.049 13.4586 37.0846 13.419 37.1249C12.8803 37.4311 12.2714 37.5923 11.6517 37.5927C11.0321 37.5931 10.423 37.4328 9.88387 37.1273C9.34476 36.8219 8.89412 36.3818 8.57601 35.85C8.2579 35.3183 8.0832 34.7131 8.06898 34.0936C9.13148 33.7874 11.1377 33.0186 11.4315 31.5061C11.4577 31.3484 11.4224 31.1865 11.3328 31.054C11.2433 30.9214 11.1064 30.8283 10.9502 30.7936C10.7978 30.7699 10.642 30.8034 10.5128 30.8876C10.3836 30.9718 10.29 31.1009 10.2502 31.2499C10.069 32.1499 8.18148 32.8186 7.43148 32.9811C6.65083 32.9704 5.88981 32.735 5.23948 32.303C4.58916 31.871 4.07708 31.2608 3.76454 30.5454C3.45199 29.8299 3.35221 29.0396 3.47714 28.2689C3.60207 27.4983 3.94642 26.7799 4.46898 26.1999C4.54503 26.1171 4.59736 26.0154 4.62046 25.9054C4.64356 25.7954 4.63657 25.6812 4.60023 25.5749C4.56386 25.4742 4.50222 25.3845 4.42124 25.3145C4.34025 25.2444 4.24263 25.1964 4.13773 25.1749C3.42412 25.0349 2.76977 24.6818 2.26112 24.162C1.75247 23.6423 1.41345 22.9805 1.28885 22.2641C1.16425 21.5477 1.25993 20.8103 1.56326 20.1493C1.86658 19.4884 2.36328 18.9351 2.98773 18.5624C3.23135 18.3986 3.50506 18.2847 3.79299 18.2275C4.08093 18.1702 4.37737 18.1707 4.66513 18.2288C4.95289 18.2869 5.22625 18.4016 5.46938 18.5661C5.7125 18.7307 5.92055 18.9419 6.08148 19.1874C6.13837 19.2673 6.21328 19.3327 6.30014 19.3783C6.387 19.4239 6.48338 19.4485 6.58148 19.4499C6.704 19.4489 6.82354 19.412 6.92523 19.3436C7.05404 19.2495 7.14198 19.1097 7.17103 18.9528C7.20008 18.7959 7.16804 18.6339 7.08148 18.4999C6.63624 17.8302 5.96991 17.3381 5.19884 17.1097C4.42776 16.8812 3.60094 16.9308 2.86273 17.2499C2.57534 16.714 2.41251 16.1202 2.38635 15.5127C2.36019 14.9052 2.47138 14.2996 2.71163 13.741C2.95189 13.1824 3.31503 12.6852 3.77403 12.2864C4.23303 11.8875 4.77607 11.5973 5.36273 11.4374C5.60081 11.8299 5.93548 12.1549 6.33483 12.3814C6.73418 12.6079 7.18489 12.7283 7.64398 12.7311C7.9575 12.7325 8.26871 12.6775 8.56273 12.5686C8.65775 12.5597 8.74944 12.5291 8.8308 12.4791C8.91215 12.4292 8.98099 12.3614 9.03203 12.2807C9.08308 12.2001 9.11499 12.1088 9.1253 12.0139C9.13561 11.919 9.12405 11.8231 9.09151 11.7333C9.05898 11.6436 9.00632 11.5625 8.93759 11.4963C8.86886 11.4301 8.78588 11.3805 8.69501 11.3513C8.60413 11.3222 8.50779 11.3142 8.41335 11.328C8.31892 11.3418 8.22891 11.3771 8.15023 11.4311C7.78213 11.5575 7.37908 11.534 7.02821 11.3656C6.67734 11.1971 6.40686 10.8974 6.27523 10.5311C6.27758 10.5125 6.27758 10.4936 6.27523 10.4749C5.95115 9.72316 5.86211 8.89095 6.01981 8.08767C6.17751 7.28439 6.57458 6.54762 7.15881 5.9742C7.74304 5.40079 8.48711 5.01757 9.2932 4.8749C10.0993 4.73224 10.9297 4.83682 11.6752 5.17489H11.7377H11.8002C13.5315 5.51239 14.044 7.09989 13.7752 8.51864C13.7508 8.67546 13.7869 8.83572 13.8763 8.96688C13.9657 9.09804 14.1016 9.19028 14.2565 9.22489H14.369C14.5143 9.22813 14.6562 9.18059 14.7703 9.09047C14.8844 9.00035 14.9635 8.87329 14.994 8.73114C15.3877 6.61864 14.4815 4.84364 12.7565 4.17489C13.0911 3.49256 13.6094 2.91704 14.253 2.51296C14.8967 2.10888 15.6403 1.89225 16.4002 1.88739C17.2265 1.88601 18.0333 2.13817 18.7117 2.60981C19.3901 3.08146 19.9075 3.7499 20.194 4.52489L20.1252 9.65614ZM26.0315 32.3874C26.2444 32.3874 26.4524 32.4506 26.6294 32.569C26.8063 32.6874 26.9441 32.8557 27.0252 33.0525C27.1064 33.2493 27.1273 33.4657 27.0853 33.6744C27.0434 33.8831 26.9403 34.0747 26.7894 34.2247C26.6384 34.3748 26.4463 34.4767 26.2373 34.5175C26.0284 34.5583 25.8121 34.5361 25.6157 34.4538C25.4194 34.3714 25.252 34.2327 25.1346 34.0551C25.0172 33.8775 24.9552 33.669 24.9565 33.4561C24.9573 33.315 24.9859 33.1753 25.0407 33.0452C25.0955 32.9151 25.1753 32.7971 25.2758 32.6978C25.3762 32.5986 25.4951 32.5201 25.6259 32.4668C25.7566 32.4136 25.8966 32.3866 26.0377 32.3874H26.0315ZM32.544 33.4561C32.5452 33.669 32.4832 33.8775 32.3659 34.0551C32.2485 34.2327 32.081 34.3714 31.8847 34.4538C31.6884 34.5361 31.4721 34.5583 31.2631 34.5175C31.0542 34.4767 30.862 34.3748 30.7111 34.2247C30.5601 34.0747 30.4571 33.8831 30.4151 33.6744C30.3731 33.4657 30.394 33.2493 30.4752 33.0525C30.5564 32.8557 30.6942 32.6874 30.8711 32.569C31.048 32.4506 31.2561 32.3874 31.469 32.3874C31.6101 32.3866 31.7501 32.4136 31.8808 32.4668C32.0116 32.5201 32.1306 32.5986 32.231 32.6978C32.3314 32.7971 32.4112 32.9151 32.466 33.0452C32.5208 33.1753 32.5494 33.315 32.5502 33.4561H32.544ZM37.7127 27.6874C37.4999 27.6886 37.2914 27.6266 37.1138 27.5093C36.9362 27.3919 36.7974 27.2244 36.7151 27.0281C36.6328 26.8318 36.6106 26.6155 36.6514 26.4065C36.6921 26.1976 36.794 26.0055 36.9441 25.8545C37.0942 25.7035 37.2857 25.6005 37.4944 25.5585C37.7031 25.5165 37.9196 25.5375 38.1164 25.6186C38.3132 25.6998 38.4815 25.8376 38.5999 26.0145C38.7183 26.1914 38.7815 26.3995 38.7815 26.6124C38.7815 26.8953 38.67 27.1669 38.4711 27.3681C38.2721 27.5694 38.0019 27.6841 37.719 27.6874H37.7127Z" fill="#558B2F"/>
</svg>
