<svg width="20" height="20" viewBox="0 0 20 20" fill="none" xmlns="http://www.w3.org/2000/svg">
<g clip-path="url(#clip0_672_8135)">
<path d="M18.1151 1.88482C15.602 -0.628301 11.513 -0.628262 8.99992 1.88486C7.28332 3.60146 6.68707 6.13119 7.43035 8.42631L0.17168 15.685C0.0617969 15.7949 0 15.9437 0 16.0993V19.4141C0 19.7379 0.26207 20 0.585938 20H3.9007C4.05633 20 4.20512 19.9382 4.31496 19.8283L5.14352 18.9992C5.26996 18.8728 5.33176 18.6954 5.31117 18.5174L5.20816 17.6271L6.44184 17.5109C6.72223 17.4846 6.94367 17.2631 6.97 16.9827L7.08617 15.749L7.97652 15.8526C8.14187 15.8749 8.3084 15.8194 8.43371 15.7084C8.55844 15.5969 8.62996 15.4378 8.62996 15.2707V14.1797H9.70113C9.85676 14.1797 10.0055 14.1179 10.1154 14.008L11.618 12.5253C13.9125 13.2692 16.3985 12.7178 18.1151 11.0001C20.6282 8.48697 20.6282 4.39795 18.1151 1.88482ZM16.4575 6.02818C15.772 6.71369 14.6573 6.71369 13.9718 6.02818C13.2863 5.34268 13.2863 4.22803 13.9718 3.54252C14.6573 2.85701 15.772 2.85701 16.4575 3.54252C17.143 4.22803 17.143 5.34268 16.4575 6.02818Z" fill="#558B2F"/>
</g>
<defs>
<clipPath id="clip0_672_8135">
<rect width="20" height="20" fill="white"/>
</clipPath>
</defs>
</svg>
