<svg width="18" height="25" viewBox="0 0 18 25" fill="none" xmlns="http://www.w3.org/2000/svg">
<path d="M15.0669 1.80056C15.2348 0.931455 14.6655 0.0798657 13.7821 0.0244864C12.3584 -0.0647553 10.926 0.0901017 9.54745 0.486261C7.65387 1.03044 5.91575 2.01453 4.47484 3.35824C3.03394 4.70196 1.93107 6.36725 1.2562 8.21829C0.581322 10.0693 0.353555 12.0537 0.591475 14.0095C0.829394 15.9653 1.52626 17.8371 2.62523 19.4724C3.72421 21.1076 5.19416 22.46 6.91519 23.419C8.63623 24.3781 10.5596 24.9168 12.5284 24.9911C13.9617 25.0452 15.3895 24.8521 16.7502 24.4242C17.5946 24.1586 17.9431 23.1954 17.5718 22.3919C17.2004 21.5883 16.2492 21.253 15.3938 21.4809C14.5023 21.7186 13.5773 21.8229 12.6494 21.7879C11.1854 21.7326 9.75527 21.3321 8.47558 20.6189C7.19589 19.9058 6.10289 18.9003 5.28574 17.6844C4.46859 16.4685 3.95043 15.0766 3.77352 13.6224C3.59661 12.1681 3.76597 10.6926 4.26778 9.31629C4.76959 7.93994 5.58964 6.70169 6.66104 5.70256C7.73243 4.70342 9.02484 3.9717 10.4328 3.56707C11.3254 3.31057 12.2483 3.19011 13.1709 3.20707C14.0559 3.22334 14.899 2.66967 15.0669 1.80056Z" fill="url(#paint0_linear_183_11946)"/>
<defs>
<linearGradient id="paint0_linear_183_11946" x1="13" y1="4.47035e-08" x2="14.5" y2="25" gradientUnits="userSpaceOnUse">
<stop stop-color="#558B2F"/>
<stop offset="1" stop-color="#558B2F" stop-opacity="0"/>
</linearGradient>
</defs>
</svg>
