<svg width="40" height="40" viewBox="0 0 40 40" fill="none" xmlns="http://www.w3.org/2000/svg">
<path d="M2.32422 37.0928H9.16466V22.7222H2.32422V37.0928ZM3.33089 23.7324H8.15711V36.0866H3.33089V23.7324Z" fill="#558B2F"/>
<path d="M11.8281 37.0929H18.6686V17.3889H11.8281V37.0929ZM12.8352 18.3991H17.6615V36.0867H12.8352V18.3991Z" fill="#558B2F"/>
<path d="M21.3325 37.0928H28.173V22.7222H21.3325V37.0928ZM22.3396 23.7324H27.1659V36.0866H22.3396V23.7324Z" fill="#558B2F"/>
<path d="M30.8379 37.0929H37.6783V12.0867H30.8379V37.0929ZM31.8446 13.0956H36.6712V36.0867H31.8446V13.0956Z" fill="#558B2F"/>
<path d="M31.3722 5.75775C31.3722 6.39687 31.5824 6.98442 31.9367 7.46353L26.3442 13.9938C25.8878 13.6906 25.3416 13.512 24.754 13.512C23.8416 13.512 23.0264 13.9409 22.4971 14.6075L17.9851 11.9689C18.0807 11.684 18.1336 11.3804 18.1336 11.0635C18.1336 9.47775 16.8322 8.17909 15.2473 8.17909C13.6589 8.17909 12.3629 9.47775 12.3629 11.0635C12.3629 11.3804 12.4158 11.6818 12.5113 11.9662L7.99933 14.6075C7.47 13.9409 6.65489 13.512 5.74244 13.512C4.15489 13.512 2.85889 14.8106 2.85889 16.3991C2.85889 17.9866 4.15489 19.2809 5.74244 19.2809C7.32822 19.2809 8.62955 17.9866 8.62955 16.3991C8.62955 16.0813 8.57578 15.7786 8.47844 15.4938L12.9904 12.8524C13.5198 13.5191 14.3349 13.948 15.2473 13.948C16.1571 13.948 16.974 13.5191 17.5042 12.8551L22.0153 15.4942C21.9207 15.7791 21.8669 16.0818 21.8669 16.3995C21.8669 17.9871 23.1656 19.2813 24.754 19.2813C26.3416 19.2813 27.6376 17.9871 27.6376 16.3995C27.6376 15.76 27.4247 15.172 27.0731 14.6929L32.6678 8.16086C33.1233 8.46398 33.6704 8.64264 34.258 8.64264C35.8456 8.64264 37.1424 7.34575 37.1424 5.7582C37.1429 4.17198 35.846 2.87598 34.2584 2.87598C32.6709 2.87598 31.3722 4.17198 31.3722 5.75775ZM36.1362 5.75775C36.1362 6.8022 35.3002 7.63464 34.2584 7.63464C33.2167 7.63464 32.3807 6.8022 32.3807 5.75775C32.3807 4.71598 33.2167 3.88175 34.2584 3.88175C35.3002 3.88175 36.1362 4.71598 36.1362 5.75775ZM17.1224 11.0635C17.1224 12.1071 16.2891 12.9413 15.2473 12.9413C14.2029 12.9413 13.3696 12.1071 13.3696 11.0635C13.3696 10.0218 14.2029 9.18842 15.2473 9.18842C16.2891 9.18842 17.1224 10.0218 17.1224 11.0635ZM7.61711 16.3991C7.61711 17.44 6.78378 18.2742 5.742 18.2742C4.69844 18.2742 3.86511 17.44 3.86511 16.3991C3.86511 15.3551 4.69844 14.5191 5.742 14.5191C6.78378 14.5191 7.61711 15.3551 7.61711 16.3991ZM26.6309 16.3991C26.6309 17.44 25.7958 18.2742 24.754 18.2742C23.7122 18.2742 22.8762 17.44 22.8762 16.3991C22.8767 15.3551 23.7127 14.5191 24.754 14.5191C25.7958 14.5191 26.6309 15.3551 26.6309 16.3991Z" fill="#558B2F"/>
</svg>
