<svg width="24" height="40" viewBox="0 0 24 40" fill="none" xmlns="http://www.w3.org/2000/svg">
<path d="M23.9669 21.9913L23.9602 28.4823C23.9625 31.0027 23.0487 33.4369 21.3872 35.3354C20.3634 36.5089 19.8684 37.8297 19.8744 39.3724C19.8758 39.7177 19.5969 39.9987 19.2517 40C19.2508 40 19.25 40 19.2492 40C18.9051 40 18.6254 39.7217 18.6241 39.3773C18.6169 37.5431 19.2299 35.9064 20.4457 34.5127C21.9081 32.8418 22.7119 30.7004 22.7099 28.4822L22.7166 21.9902C22.717 21.3266 22.4587 20.8115 21.9889 20.5398C21.5489 20.2854 20.9849 20.2824 20.5516 20.5321C20.0911 20.7975 19.8372 21.3149 19.8368 21.9891C19.8365 22.3342 19.5566 22.6137 19.2116 22.6138C19.2115 22.6138 19.2113 22.6138 19.2112 22.6138C18.8661 22.6135 18.5865 22.3337 18.5865 21.9886L18.5865 19.7409C18.5869 19.2578 18.4318 18.8759 18.1254 18.6054C17.853 18.3647 17.4637 18.2265 17.0574 18.2262C17.057 18.2262 17.0565 18.2262 17.056 18.2262C16.2954 18.2262 15.5281 18.6932 15.5273 19.737H15.5272L15.5251 21.9892C15.5247 22.3343 15.2449 22.6138 14.8999 22.6138C14.8997 22.6138 14.8995 22.6138 14.8993 22.6138C14.5541 22.6134 14.2744 22.3333 14.2748 21.988L14.277 19.6517C14.2776 18.9089 13.9043 18.5369 13.591 18.3558C13.0866 18.064 12.4086 18.0635 11.9039 18.3544C11.5972 18.5311 11.2337 18.8914 11.2172 19.6026L11.2156 21.989C11.2154 22.3341 10.9355 22.6138 10.5905 22.6138C10.5903 22.6138 10.5902 22.6138 10.59 22.6138C10.2448 22.6135 9.9651 22.3335 9.96532 21.9882L9.97417 8.40433C9.97417 7.5601 9.28803 6.87292 8.4446 6.87292C8.44368 6.87292 8.44261 6.87292 8.4417 6.87292C7.59938 6.87292 6.91434 7.55797 6.91277 8.40147L6.9017 25.9198C6.90148 26.2649 6.6216 26.5445 6.27656 26.5445C6.27641 26.5445 6.27634 26.5445 6.27618 26.5445C5.93092 26.5443 5.6512 26.2642 5.65142 25.919L5.65427 21.4246H5.32431C5.32336 21.4246 5.32237 21.4246 5.32142 21.4246C4.9159 21.4246 4.53362 21.5839 4.24349 21.8735C3.95267 22.1638 3.79249 22.5468 3.79249 22.9519L3.78806 28.4666C3.78607 30.6785 4.59779 32.8255 6.07376 34.512C7.29176 35.9081 7.90538 37.5448 7.89824 39.3773C7.8969 39.7217 7.61726 40 7.27314 40C7.2723 40 7.27149 40 7.27066 40C6.92539 39.9986 6.64663 39.7177 6.64796 39.3724C6.65399 37.8313 6.1582 36.5106 5.13228 35.3346C3.45713 33.4205 2.53549 30.9808 2.53778 28.4655L2.54221 22.9514C2.54221 22.2124 2.83273 21.5151 3.36027 20.9886C3.88777 20.4621 4.58792 20.1738 5.3255 20.1743H5.65505L5.66249 8.39991C5.66535 6.86709 6.91109 5.62265 8.44051 5.62265H8.44578C9.97741 5.62265 11.2244 6.87071 11.2244 8.40475L11.2187 17.309C11.2391 17.2965 11.2587 17.2831 11.2795 17.2711C12.1721 16.7567 13.3251 16.7577 14.217 17.2735C14.4999 17.4371 14.7407 17.6461 14.9369 17.8898C15.4731 17.2861 16.2671 16.976 17.0561 16.976H17.0584C18.3802 16.977 19.7159 17.8472 19.8282 19.5107C19.861 19.4898 19.8933 19.4684 19.9273 19.4489C20.7529 18.973 21.7828 18.9763 22.6148 19.4575C23.4749 19.9549 23.9677 20.8784 23.9669 21.9913ZM13.0685 7.77074C12.724 7.77074 12.4443 8.04947 12.4434 8.39412C12.4424 8.73939 12.7215 9.02006 13.0668 9.02102L16.2291 9.02991H16.2309C16.5753 9.02991 16.8551 8.75118 16.856 8.40652C16.857 8.06126 16.5779 7.78062 16.2326 7.77963L13.0703 7.77074C13.0697 7.77074 13.0691 7.77074 13.0685 7.77074ZM8.44457 4.40375H8.44595C8.79117 4.40302 9.07048 4.12255 9.06975 3.77731L9.06311 0.623805C9.06238 0.279031 8.78263 0 8.43801 0C8.43755 0 8.4371 0 8.43664 0C8.09141 0.000726563 7.8121 0.281203 7.81283 0.626438L7.81947 3.77995C7.8202 4.12476 8.09996 4.40375 8.44457 4.40375ZM11.711 5.76124C11.8705 5.76124 12.03 5.70061 12.152 5.57924L14.3953 3.34699C14.64 3.10345 14.641 2.70766 14.3975 2.46289C14.1539 2.21823 13.7581 2.21717 13.5134 2.46072L11.2701 4.69297C11.0253 4.93652 11.0244 5.3323 11.2679 5.57707C11.3901 5.69981 11.5505 5.76124 11.711 5.76124ZM4.4436 8.39412C4.4426 8.04947 4.16292 7.77074 3.8185 7.77074C3.81792 7.77074 3.81728 7.77074 3.8167 7.77074L0.656588 7.77963C0.311323 7.78062 0.0322524 8.06126 0.0332056 8.40652C0.0341587 8.75118 0.313877 9.02991 0.658307 9.02991H0.660104L3.82021 9.02102C4.16548 9.02006 4.44455 8.73935 4.4436 8.39412ZM4.73724 5.57703C4.85918 5.69841 5.01867 5.75903 5.17816 5.75903C5.33864 5.75903 5.49912 5.6976 5.6213 5.57485C5.86481 5.33009 5.86385 4.9343 5.61909 4.69075L3.37799 2.46072C3.13334 2.21725 2.73751 2.21816 2.49392 2.46289C2.25042 2.70766 2.25137 3.10345 2.49613 3.34699L4.73724 5.57703Z" fill="#558B2F"/>
</svg>
