<svg width="15" height="15" viewBox="0 0 15 15" fill="none" xmlns="http://www.w3.org/2000/svg">
<g clip-path="url(#clip0_183_6894)">
<rect width="15" height="15" rx="7.5" fill="#558B2F"/>
<path d="M5.84753 10.4209C5.45453 10.0119 5.13707 9.61182 4.83041 9.22438C4.5502 8.87209 4.30723 8.49564 4.10486 8.10023C3.9782 7.86031 3.92214 7.61738 4.19649 7.46118C4.98276 7.01361 5.14388 7.44097 5.57125 7.93684C5.82456 8.23067 6.19811 8.7152 6.43216 9.02134C6.65572 9.31368 6.92827 8.78603 7.03707 8.63715C7.42377 8.10802 8.42885 6.81262 8.84418 6.33378C9.23849 5.87922 10.5112 4.60578 10.7485 4.40324C10.9504 4.23077 11.3768 3.85249 11.6635 4.06117C11.9648 4.28043 12.112 4.69722 11.9002 4.96822C11.5314 5.44001 10.952 5.88882 10.5511 6.33805C9.73962 7.24741 8.97134 8.22761 8.23387 9.20359C7.98328 9.53525 7.63143 10.0907 7.413 10.4504C7.00439 11.1233 6.64548 11.2513 5.84753 10.4209Z" fill="white"/>
</g>
<rect x="0.5" y="0.5" width="14" height="14" rx="7" stroke="#558B2F"/>
<defs>
<clipPath id="clip0_183_6894">
<rect width="15" height="15" rx="7.5" fill="white"/>
</clipPath>
</defs>
</svg>
