<svg width="37" height="40" viewBox="0 0 37 40" fill="none" xmlns="http://www.w3.org/2000/svg">
<path d="M18.5 0C13.266 0 9.00781 4.73133 9.00781 10.5469C9.00781 16.3624 13.266 21.0938 18.5 21.0938C23.734 21.0938 27.9922 16.3624 27.9922 10.5469C27.9922 4.73133 23.734 0 18.5 0Z" fill="#558B2F"/>
<path d="M30.3101 27.984C27.7114 25.0521 24.2663 23.4375 20.6094 23.4375H16.3906C12.7338 23.4375 9.28864 25.0521 6.68989 27.984C4.10387 30.9015 2.67969 34.7526 2.67969 38.8281C2.67969 39.4753 3.15191 40 3.73438 40H33.2656C33.8481 40 34.3203 39.4753 34.3203 38.8281C34.3203 34.7526 32.8961 30.9015 30.3101 27.984Z" fill="#558B2F"/>
</svg>
