<svg width="41" height="40" viewBox="0 0 41 40" fill="none" xmlns="http://www.w3.org/2000/svg">
<g clip-path="url(#clip0_672_8023)">
<path d="M25.3359 38.2579C25.2031 38.1798 25.0625 38.1017 24.9297 38.0235L24.1094 38.3751C22.5 39.0626 20.6328 38.4376 19.7578 36.922L18.3516 34.4845C17.4766 32.9688 17.875 31.0392 19.2734 29.9845L19.9844 29.4532C19.9844 29.3751 19.9844 29.297 19.9844 29.2188C19.9844 29.1407 19.9844 29.0626 19.9844 28.9845L19.2734 28.4532C17.875 27.3985 17.4844 25.4688 18.3516 23.9532L19.7578 21.5157C20.1797 20.7892 20.8438 20.2423 21.6328 19.9767C19.6875 19.086 17.5703 18.6251 15.4297 18.6329C7.1875 18.6251 0.5 25.3126 0.5 33.5548V37.8829C0.5 39.0548 1.44531 40.0001 2.61719 40.0001H25.6562C25.5469 39.7267 25.4766 39.4376 25.4375 39.1407L25.3359 38.2579Z" fill="#558B2F"/>
<path d="M15.4297 16.3906C19.9558 16.3906 23.625 12.7215 23.625 8.19531C23.625 3.66917 19.9558 0 15.4297 0C10.9035 0 7.23438 3.66917 7.23438 8.19531C7.23438 12.7215 10.9035 16.3906 15.4297 16.3906Z" fill="#558B2F"/>
<path d="M39.9923 31.7344L38.3126 30.4766C38.4454 29.6484 38.4454 28.7969 38.3126 27.9688L39.9923 26.7109C40.5079 26.3281 40.6485 25.6172 40.3282 25.0547L38.922 22.6172C38.6016 22.0625 37.9141 21.8281 37.3204 22.0859L35.3907 22.9063C34.7345 22.375 34.0001 21.9531 33.2188 21.6484L32.9688 19.5625C32.8907 18.9219 32.3516 18.4453 31.7032 18.4453H28.8829C28.2423 18.4453 27.6954 18.9297 27.6173 19.5625L27.3673 21.6484C26.5782 21.9531 25.8516 22.375 25.1954 22.9063L23.2657 22.0859C22.672 21.8359 21.9845 22.0625 21.6641 22.6172L20.2579 25.0547C19.9376 25.6094 20.0782 26.3203 20.5938 26.7109L22.2735 27.9688C22.1407 28.7969 22.1407 29.6484 22.2735 30.4766L20.5938 31.7344C20.0782 32.125 19.9376 32.8359 20.2579 33.3906L21.6641 35.8281C21.9845 36.3828 22.672 36.6172 23.2657 36.3672L25.1954 35.5391C25.8516 36.0703 26.586 36.4922 27.3673 36.7969L27.6173 38.8828C27.6954 39.5234 28.2345 40 28.8829 40H31.7032C32.3438 40 32.8907 39.5156 32.9688 38.8828L33.2188 36.7969C34.0001 36.4922 34.7345 36.0703 35.3907 35.5391L37.3204 36.3594C37.9141 36.6094 38.6016 36.3828 38.922 35.8203L40.3282 33.3828C40.6485 32.8359 40.5079 32.125 39.9923 31.7344ZM30.2891 32.2656C28.6095 32.2656 27.2423 30.8984 27.2423 29.2188C27.2423 27.5391 28.6095 26.1719 30.2891 26.1719C31.9688 26.1719 33.336 27.5391 33.336 29.2188C33.336 30.8984 31.9688 32.2656 30.2891 32.2656Z" fill="#558B2F"/>
</g>
<defs>
<clipPath id="clip0_672_8023">
<rect width="40" height="40" fill="white" transform="translate(0.5)"/>
</clipPath>
</defs>
</svg>
